<svg xmlns="http://www.w3.org/2000/svg" width="342.472" height="58.302" viewBox="0 0 342.472 58.302"><g transform="translate(-36.264 -33.668)"><path d="M58.229,49.643h3.013a.356.356,0,1,0,0-.712H58.229a.356.356,0,0,0,0,.712Zm1.506,26.4A1.569,1.569,0,1,0,61.3,77.617,1.571,1.571,0,0,0,59.735,76.046ZM52.049,74.7H67.425V51.963H52.049Zm49.3-7.468a3.062,3.062,0,0,0-1.982.723,3.4,3.4,0,0,0-1.164,1.91,3.941,3.941,0,0,0-.135.9v2.215a3.537,3.537,0,0,0,.888,2.453,2.966,2.966,0,0,0,2.312.995,3.025,3.025,0,0,0,2.6-1.286,5.669,5.669,0,0,0,.928-3.4,5.461,5.461,0,0,0-.873-3.2A3.046,3.046,0,0,0,101.348,67.236Zm53.922-.184a2.959,2.959,0,0,0-2.7,1.582,5.974,5.974,0,0,0-.8,3.189,5.88,5.88,0,0,0,.8,3.139,2.972,2.972,0,0,0,2.683,1.58,2.937,2.937,0,0,0,2.647-1.613,5.849,5.849,0,0,0,.827-3.158,5.963,5.963,0,0,0-.79-3.137A2.941,2.941,0,0,0,155.27,67.052Zm-39.3.184a3.059,3.059,0,0,0-1.983.723,3.419,3.419,0,0,0-1.166,1.91,3.867,3.867,0,0,0-.133.9v2.215a3.545,3.545,0,0,0,.887,2.453,2.964,2.964,0,0,0,2.309.995,3.022,3.022,0,0,0,2.605-1.286,5.656,5.656,0,0,0,.934-3.4,5.484,5.484,0,0,0-.876-3.2A3.054,3.054,0,0,0,115.967,67.236ZM85.42,62.477h-.052c-.185.785-.474,1.941-.879,3.477l-1.533,4.818h4.953l-1.554-4.818Q86.1,65.21,85.42,62.477Zm92.27,4.431a2.833,2.833,0,0,0-2.353,1.21,4.387,4.387,0,0,0-.876,2.294h6.158a4.055,4.055,0,0,0-.572-2.27A2.6,2.6,0,0,0,177.69,66.908ZM98.457,53.78A1.208,1.208,0,0,0,98.5,53.4v-.941c-1.224-.015-2.391.238-2.391,1.279a.909.909,0,0,0,.985.986A1.422,1.422,0,0,0,98.457,53.78ZM82.326,49.474c-.183-.577-.338-1.224-.478-1.772h-.03c-.139.548-.295,1.209-.45,1.772l-.73,2.336h2.433ZM180.42,48.8c2.223,0,2.955,1.829,2.955,3.335a4.137,4.137,0,0,1-.057.731h-4.587a1.855,1.855,0,0,0,2.111,1.773,5.487,5.487,0,0,0,1.9-.31l.253,1.183a6.176,6.176,0,0,1-2.392.435,3.241,3.241,0,0,1-3.531-3.46A3.393,3.393,0,0,1,180.42,48.8Zm-27.461.155.084,1.027h.043A2.512,2.512,0,0,1,155.28,48.8c1.2,0,2.435.773,2.435,2.94v4.067h-1.731v-3.87c0-.984-.366-1.73-1.308-1.73a1.454,1.454,0,0,0-1.352,1.013,1.617,1.617,0,0,0-.084.549v4.038h-1.73V50.994c0-.788-.029-1.449-.057-2.04ZM134.786,48.8c2.223,0,2.955,1.829,2.955,3.335a4.26,4.26,0,0,1-.056.731H133.1a1.855,1.855,0,0,0,2.11,1.773,5.491,5.491,0,0,0,1.9-.31l.253,1.183a6.174,6.174,0,0,1-2.391.435,3.241,3.241,0,0,1-3.532-3.46A3.393,3.393,0,0,1,134.786,48.8Zm-7.093-2.983h1.73v9.99h-1.73Zm-13.724,4.207a3.621,3.621,0,0,0-1.843.507l-.338-1.126a4.927,4.927,0,0,1,2.476-.6,2.568,2.568,0,0,1,2.829,2.9V54.16a9.3,9.3,0,0,0,.111,1.646h-1.561l-.126-.76h-.042a2.506,2.506,0,0,1-2.027.915,2.034,2.034,0,0,1-2.153-2.041c0-1.716,1.533-2.6,4.066-2.588v-.113C115.361,50.769,115.178,50.023,113.969,50.023ZM103.736,46.1a.936.936,0,1,1-.97.943A.925.925,0,0,1,103.736,46.1Zm.858,2.857v6.852h-1.73V48.954Zm-23.8-2.632H83l3.081,9.484H84.211l-.858-2.688h-3l-.816,2.688H77.752ZM69.268,77.768a3.032,3.032,0,0,1-3.033,3.025H53.24a3.032,3.032,0,0,1-3.034-3.025V48.891a3.035,3.035,0,0,1,3.034-3.029H66.235a3.035,3.035,0,0,1,3.033,3.029Zm20.888.693-1.722-5.415h-6l-1.644,5.415H77.73l5.935-18.448h3.672l5.97,18.448Zm.672-22.655h-1.7l-2.547-6.852H88.45l1.11,3.475c.2.6.338,1.154.465,1.717h.043c.126-.563.282-1.1.464-1.717l1.1-3.475h1.815Zm3.563-1.886c0-1.716,1.533-2.6,4.066-2.588v-.113c0-.45-.184-1.2-1.394-1.2a3.62,3.62,0,0,0-1.842.507L94.883,49.4a4.924,4.924,0,0,1,2.476-.6c2.195,0,2.828,1.393,2.828,2.9V54.16a9.18,9.18,0,0,0,.113,1.646H98.737l-.126-.76h-.042a2.5,2.5,0,0,1-2.026.915A2.033,2.033,0,0,1,94.391,53.92Zm11.574,23.1a5.418,5.418,0,0,1-4.1,1.747,4.1,4.1,0,0,1-3.8-1.891v6.986H95.113V69.53q0-2.134-.113-4.372h2.6l.163,2.107h.051a5.273,5.273,0,0,1,8.425-.516,7.346,7.346,0,0,1,1.572,4.9A7.523,7.523,0,0,1,105.965,77.015Zm3.076-21.209h-1.73v-9.99h1.73ZM120.58,77.015a5.419,5.419,0,0,1-4.1,1.747,4.093,4.093,0,0,1-3.794-1.891v6.986h-2.958V69.53q0-2.134-.109-4.372h2.594l.171,2.107h.051a5.266,5.266,0,0,1,8.418-.516,7.316,7.316,0,0,1,1.576,4.9A7.523,7.523,0,0,1,120.58,77.015Zm2.03-21.054a2.358,2.358,0,0,1-2.167-1.182h-.028l-.084,1.027h-1.478c.029-.465.057-1.224.057-1.928V45.816h1.73V49.9h.028a2.479,2.479,0,0,1,2.195-1.1c1.675,0,2.87,1.393,2.857,3.475C125.72,54.737,124.158,55.961,122.61,55.961Zm14.88,21.158a7.28,7.28,0,0,1-5.027,1.613,8.81,8.81,0,0,1-4.781-1.148l.686-2.462a8.263,8.263,0,0,0,4.265,1.149,4.053,4.053,0,0,0,2.6-.752,2.462,2.462,0,0,0,.928-2.02,2.578,2.578,0,0,0-.764-1.881,7.2,7.2,0,0,0-2.545-1.423q-4.839-1.8-4.842-5.279a4.653,4.653,0,0,1,1.706-3.726,6.784,6.784,0,0,1,4.532-1.449,9.018,9.018,0,0,1,4.189.874l-.746,2.409a7.31,7.31,0,0,0-3.54-.85,3.673,3.673,0,0,0-2.447.764,2.217,2.217,0,0,0-.738,1.675,2.284,2.284,0,0,0,.847,1.81,9.672,9.672,0,0,0,2.68,1.418A9,9,0,0,1,138,70.088a4.7,4.7,0,0,1,1.122,3.2A4.93,4.93,0,0,1,137.49,77.119Zm10.421-9.746h-3.263v6.466c0,1.641.579,2.455,1.73,2.455a5.431,5.431,0,0,0,1.312-.128l.084,2.239a6.693,6.693,0,0,1-2.3.329,3.525,3.525,0,0,1-2.736-1.067,5.193,5.193,0,0,1-.99-3.584v-6.71h-1.941V65.158h1.941V62.723l2.9-.876v3.311h3.263Zm-1.667-11.412a3.314,3.314,0,0,1-3.434-3.532,3.383,3.383,0,0,1,3.546-3.63,3.288,3.288,0,0,1,3.406,3.517A3.4,3.4,0,0,1,146.244,55.961Zm13.795,20.781a6.276,6.276,0,0,1-4.871,2.02,5.955,5.955,0,0,1-4.674-1.942,7.085,7.085,0,0,1-1.734-4.9,7.226,7.226,0,0,1,1.791-5.062,6.188,6.188,0,0,1,4.828-1.967,6.062,6.062,0,0,1,4.714,1.943,7.008,7.008,0,0,1,1.694,4.869A7.3,7.3,0,0,1,160.039,76.742Zm3.055-27.788h.97V47.673l1.7-.479v1.76h1.645v1.294h-1.645v3.025c0,.845.224,1.267.885,1.267a2.263,2.263,0,0,0,.676-.071l.028,1.308a3.779,3.779,0,0,1-1.252.184,1.985,1.985,0,0,1-1.492-.563,2.7,2.7,0,0,1-.549-1.928V50.248h-.97Zm7.588,18.8a5.329,5.329,0,0,0-.931-.075,2.8,2.8,0,0,0-2.408,1.175,4.4,4.4,0,0,0-.74,2.625v6.979h-2.956V69.342q0-2.286-.079-4.184h2.573l.11,2.547h.081a4.48,4.48,0,0,1,1.478-2.1,3.55,3.55,0,0,1,2.137-.71,4.657,4.657,0,0,1,.735.05Zm.448-16.06v4.109H169.4v-9.99h1.73v4.066h.028a2.281,2.281,0,0,1,.859-.773,2.425,2.425,0,0,1,1.2-.31c1.168,0,2.392.773,2.392,2.969v4.038h-1.731V51.951c0-.985-.366-1.745-1.322-1.745a1.442,1.442,0,0,0-1.351.971A1.533,1.533,0,0,0,171.13,51.7Zm12.2,20.83h-8.87a3.847,3.847,0,0,0,1.288,3,4.375,4.375,0,0,0,2.9.932,9.679,9.679,0,0,0,3.586-.634l.466,2.055a11.038,11.038,0,0,1-4.465.82,6.451,6.451,0,0,1-4.854-1.817A6.723,6.723,0,0,1,171.611,72a7.663,7.663,0,0,1,1.643-5.014,5.685,5.685,0,0,1,4.655-2.132,4.946,4.946,0,0,1,4.353,2.132,7.211,7.211,0,0,1,1.176,4.193A7.445,7.445,0,0,1,183.331,72.527Zm-61.1-22.378a1.608,1.608,0,0,0-1.533,1.267,2.005,2.005,0,0,0-.057.45v1.111a1.865,1.865,0,0,0,.043.409,1.581,1.581,0,0,0,1.533,1.21c1.084,0,1.745-.859,1.745-2.251C123.961,51.135,123.384,50.149,122.23,50.149Zm12.457-.168a1.692,1.692,0,0,0-1.589,1.674h3.01A1.472,1.472,0,0,0,134.687,49.981Zm11.627.07c-1.224,0-1.716,1.2-1.716,2.335,0,1.323.661,2.322,1.7,2.322.984,0,1.674-.956,1.674-2.349C147.975,51.289,147.5,50.051,146.314,50.051Zm-33.3,3.686a.909.909,0,0,0,.984.986,1.42,1.42,0,0,0,1.365-.943,1.181,1.181,0,0,0,.042-.381v-.941C114.18,52.443,113.012,52.7,113.012,53.737Zm67.309-3.756a1.694,1.694,0,0,0-1.59,1.674h3.011A1.472,1.472,0,0,0,180.321,49.981Z" fill="#fff"/><path d="M189.658,91.97H43.987a7.727,7.727,0,0,1-7.723-7.715V42.393a7.732,7.732,0,0,1,7.723-7.725H189.658a7.733,7.733,0,0,1,7.725,7.725V84.255A7.729,7.729,0,0,1,189.658,91.97ZM43.987,36.668a5.73,5.73,0,0,0-5.723,5.725V84.255a5.725,5.725,0,0,0,5.723,5.715H189.658a5.727,5.727,0,0,0,5.725-5.715V42.393a5.732,5.732,0,0,0-5.725-5.725Z" fill="#fff"/><path d="M370.27,90.921H216.294a8.476,8.476,0,0,1-8.467-8.467V42.135a8.477,8.477,0,0,1,8.467-8.467H370.27a8.477,8.477,0,0,1,8.466,8.467V82.454A8.476,8.476,0,0,1,370.27,90.921ZM216.294,35.668a6.474,6.474,0,0,0-6.467,6.467V82.454a6.474,6.474,0,0,0,6.467,6.467H370.27a6.473,6.473,0,0,0,6.466-6.467V42.135a6.473,6.473,0,0,0-6.466-6.467Z" fill="#fff"/><path d="M264.622,50.38h-1.136a7.479,7.479,0,0,0-.322-1.327h-1.639a6.8,6.8,0,0,0-.334,1.327h-1.068q0-.14.829-2.271a17.807,17.807,0,0,0,.828-2.348h1.341a19.542,19.542,0,0,0,.75,2.314A20.458,20.458,0,0,1,264.622,50.38Zm-1.639-2.005a19.9,19.9,0,0,1-.607-1.979h-.057q0,.138-.628,1.979Z" fill="#fff"/><path d="M269.2,50.38h-.876a8.729,8.729,0,0,0-.976-1.537,8.465,8.465,0,0,1-1.164-2h-.056a12.5,12.5,0,0,1,.088,1.4q0,.876.05,2.136h-.873q.054-1.1.054-2.416,0-1.294-.054-2.2h1.054a6.69,6.69,0,0,0,.876,1.5,8.9,8.9,0,0,1,1.072,1.891h.053a13.316,13.316,0,0,1-.085-1.419q0-.962-.05-1.972h.887q-.05.879-.05,2.2T269.2,50.38Z" fill="#fff"/><path d="M274.338,47.91a2.619,2.619,0,0,1-.646,1.76,2.255,2.255,0,0,1-1.809.752q-.525,0-1.448-.042.047-1.073.046-2.416,0-1.292-.046-2.2h.621c.1,0,.253,0,.454-.011s.332-.011.394-.011a2.389,2.389,0,0,1,1.857.639A2.211,2.211,0,0,1,274.338,47.91Zm-.969.153a1.709,1.709,0,0,0-.4-1.148,1.51,1.51,0,0,0-1.213-.466,3.8,3.8,0,0,0-.419.032q.035.709.035,1.483,0,.847.036,1.681a2.325,2.325,0,0,0,.461.046,1.343,1.343,0,0,0,1.13-.473A1.828,1.828,0,0,0,273.369,48.063Z" fill="#fff"/><path d="M279.079,50.38h-1.05a6.981,6.981,0,0,0-.632-1.551.828.828,0,0,0-.709-.294c-.138,0-.269,0-.394,0q0,.912.032,1.842h-.986q.045-1.073.046-2.416,0-1.292-.046-2.2h.613c.071,0,.22,0,.445-.011s.435-.011.627-.011q1.627,0,1.628,1.114a1.248,1.248,0,0,1-.93,1.231v.054a1.1,1.1,0,0,1,.628.558A12.435,12.435,0,0,1,279.079,50.38Zm-1.331-3.264q0-.707-.908-.706a3.127,3.127,0,0,0-.589.05q.039.549.039,1.433c.13,0,.24.007.33.007Q277.748,47.9,277.748,47.116Z" fill="#fff"/><path d="M284.164,47.985a2.551,2.551,0,0,1-.667,1.806,2.163,2.163,0,0,1-1.65.716,2.085,2.085,0,0,1-1.568-.658,2.315,2.315,0,0,1-.631-1.672,2.547,2.547,0,0,1,.667-1.806,2.161,2.161,0,0,1,1.649-.717,2.086,2.086,0,0,1,1.568.657A2.314,2.314,0,0,1,284.164,47.985Zm-.979.1a1.834,1.834,0,0,0-.38-1.2,1.169,1.169,0,0,0-.937-.461,1.081,1.081,0,0,0-.879.465,1.849,1.849,0,0,0-.362,1.174,1.829,1.829,0,0,0,.381,1.2,1.167,1.167,0,0,0,.935.463,1.082,1.082,0,0,0,.88-.467A1.855,1.855,0,0,0,283.185,48.088Z" fill="#fff"/><path d="M286.169,50.38h-1q.045-1.1.046-2.416,0-1.294-.046-2.2h1q-.045.894-.046,2.2Q286.123,49.3,286.169,50.38Z" fill="#fff"/><path d="M291.311,47.91a2.618,2.618,0,0,1-.645,1.76,2.255,2.255,0,0,1-1.809.752q-.526,0-1.448-.042.047-1.073.046-2.416,0-1.292-.046-2.2h.621c.1,0,.253,0,.454-.011s.332-.011.394-.011a2.392,2.392,0,0,1,1.857.639A2.21,2.21,0,0,1,291.311,47.91Zm-.968.153a1.715,1.715,0,0,0-.4-1.148,1.511,1.511,0,0,0-1.214-.466,3.8,3.8,0,0,0-.418.032q.035.709.035,1.483,0,.847.036,1.681a2.318,2.318,0,0,0,.461.046,1.343,1.343,0,0,0,1.13-.473A1.834,1.834,0,0,0,290.343,48.063Z" fill="#fff"/><path d="M298.133,50.38H297a7.426,7.426,0,0,0-.323-1.327h-1.639a6.848,6.848,0,0,0-.333,1.327h-1.068q0-.14.829-2.271a17.8,17.8,0,0,0,.828-2.348h1.341a19.542,19.542,0,0,0,.75,2.314A20.458,20.458,0,0,1,298.133,50.38Zm-1.639-2.005a19.9,19.9,0,0,1-.607-1.979h-.057a20.754,20.754,0,0,1-.628,1.979Z" fill="#fff"/><path d="M302.271,46.97a1.384,1.384,0,0,1-.63,1.253,2.807,2.807,0,0,1-1.545.4c-.111,0-.19,0-.238-.007q0,.667.039,1.76h-1q.047-1.026.047-2.416,0-1.278-.047-2.2h.618c.087,0,.255,0,.5-.011s.464-.011.646-.011a2.036,2.036,0,0,1,1.139.305A1.034,1.034,0,0,1,302.271,46.97Zm-.916.2q0-.76-1.007-.76a2.807,2.807,0,0,0-.532.054q.039.671.039,1.518c.059.005.127.007.2.007Q301.356,47.985,301.355,47.166Z" fill="#fff"/><path d="M306.525,46.97a1.385,1.385,0,0,1-.629,1.253,2.807,2.807,0,0,1-1.545.4c-.112,0-.191,0-.238-.007q0,.667.039,1.76h-1q.047-1.026.046-2.416,0-1.278-.046-2.2h.617c.088,0,.256,0,.5-.011s.464-.011.646-.011a2.036,2.036,0,0,1,1.139.305A1.035,1.035,0,0,1,306.525,46.97Zm-.915.2q0-.76-1.007-.76a2.825,2.825,0,0,0-.533.054c.027.447.039.953.039,1.518.059.005.128.007.206.007Q305.611,47.985,305.61,47.166Z" fill="#fff"/><path d="M313.481,47.985a2.55,2.55,0,0,1-.666,1.806,2.163,2.163,0,0,1-1.65.716,2.085,2.085,0,0,1-1.568-.658,2.315,2.315,0,0,1-.631-1.672,2.547,2.547,0,0,1,.667-1.806,2.161,2.161,0,0,1,1.649-.717,2.087,2.087,0,0,1,1.568.657A2.313,2.313,0,0,1,313.481,47.985Zm-.979.1a1.834,1.834,0,0,0-.379-1.2,1.169,1.169,0,0,0-.937-.461,1.081,1.081,0,0,0-.879.465,1.849,1.849,0,0,0-.362,1.174,1.829,1.829,0,0,0,.381,1.2,1.167,1.167,0,0,0,.935.463,1.083,1.083,0,0,0,.88-.467A1.855,1.855,0,0,0,312.5,48.088Z" fill="#fff"/><path d="M318.29,50.38h-.876a8.656,8.656,0,0,0-.976-1.537,8.411,8.411,0,0,1-1.163-2h-.057a12.522,12.522,0,0,1,.089,1.4q0,.876.049,2.136h-.872q.053-1.1.053-2.416,0-1.294-.053-2.2h1.053a6.691,6.691,0,0,0,.876,1.5,8.9,8.9,0,0,1,1.072,1.891h.053a13.316,13.316,0,0,1-.085-1.419q0-.962-.05-1.972h.887q-.05.879-.05,2.2T318.29,50.38Z" fill="#fff"/><path d="M276.44,65.178a7.4,7.4,0,0,1-2.04,5.478,7.951,7.951,0,0,1-6.029,2.431,8.574,8.574,0,1,1,0-17.147,8.458,8.458,0,0,1,3.37.687,6.759,6.759,0,0,1,2.568,1.834L272.864,59.9a5.539,5.539,0,0,0-4.493-1.949,6.557,6.557,0,0,0,0,13.113,6.22,6.22,0,0,0,4.585-1.834,5.149,5.149,0,0,0,1.375-3.324h-5.96V63.94h7.955A7.073,7.073,0,0,1,276.44,65.178Z" fill="#fff"/><path d="M278.939,62.828a5.895,5.895,0,0,1,8.3,0,6.431,6.431,0,0,1,0,8.551,5.895,5.895,0,0,1-8.3,0,6.428,6.428,0,0,1,0-8.551Zm1.571,7.221a3.547,3.547,0,0,0,5.158,0,4.529,4.529,0,0,0,0-5.892,3.549,3.549,0,0,0-5.158,0,4.529,4.529,0,0,0,0,5.892Z" fill="#fff"/><path d="M291.2,62.828a5.894,5.894,0,0,1,8.3,0,6.431,6.431,0,0,1,0,8.551,5.894,5.894,0,0,1-8.3,0,6.428,6.428,0,0,1,0-8.551Zm1.57,7.221a3.548,3.548,0,0,0,5.159,0,4.533,4.533,0,0,0,0-5.892,3.55,3.55,0,0,0-5.159,0,4.529,4.529,0,0,0,0,5.892Z" fill="#fff"/><path d="M307.366,78.038a5.091,5.091,0,0,1-3.256-1,5.85,5.85,0,0,1-1.81-2.281l1.926-.8a3.151,3.151,0,0,0,1.18,1.535,3.264,3.264,0,0,0,1.96.619,3.608,3.608,0,0,0,2.739-1.043,3.923,3.923,0,0,0,1-2.831V71.161h-.091a4.3,4.3,0,0,1-1.559,1.375,4.663,4.663,0,0,1-2.269.551,4.938,4.938,0,0,1-3.76-1.72,6.537,6.537,0,0,1,0-8.528,4.941,4.941,0,0,1,3.76-1.719,4.674,4.674,0,0,1,2.269.55,4.3,4.3,0,0,1,1.559,1.376h.091v-1.56h2.018v10.66a5.6,5.6,0,0,1-1.674,4.391A5.893,5.893,0,0,1,307.366,78.038Zm.16-6.877a3.363,3.363,0,0,0,2.534-1.1,4.717,4.717,0,0,0,0-5.914,3.442,3.442,0,0,0-5.055.011,4.641,4.641,0,0,0,0,5.892A3.353,3.353,0,0,0,307.526,71.161Z" fill="#fff"/><path d="M317.223,72.72h-2.109V56.306h2.109Z" fill="#fff"/><path d="M324.191,73.087a5.415,5.415,0,0,1-4.137-1.7A6.01,6.01,0,0,1,318.46,67.1a6.186,6.186,0,0,1,1.548-4.219,5.024,5.024,0,0,1,3.954-1.765,5.181,5.181,0,0,1,4,1.628,6.172,6.172,0,0,1,1.5,4.356l-.023.389h-8.872a3.812,3.812,0,0,0,1.135,2.682,3.441,3.441,0,0,0,2.441.986,3.027,3.027,0,0,0,3.073-1.926l1.879.78a5.038,5.038,0,0,1-1.811,2.189A5.266,5.266,0,0,1,324.191,73.087Zm3.027-7.336a2.994,2.994,0,0,0-.883-1.834,3.155,3.155,0,0,0-2.419-.871,3.024,3.024,0,0,0-2.028.733,3.748,3.748,0,0,0-1.181,1.972Z" fill="#fff"/><path d="M337.763,72.72h-2.11V56.306h5.594a5.191,5.191,0,0,1,3.61,1.386,4.771,4.771,0,0,1,0,6.993,5.186,5.186,0,0,1-3.61,1.386h-3.484Zm0-8.665h3.53a2.726,2.726,0,0,0,2.132-.9,2.823,2.823,0,0,0,0-3.942,2.723,2.723,0,0,0-2.132-.895h-3.53Z" fill="#fff"/><path d="M349.866,72.72h-2.108V56.306h2.108Z" fill="#fff"/><path d="M355.3,73.087a4.434,4.434,0,0,1-2.991-1.032,3.415,3.415,0,0,1-1.205-2.728,3.372,3.372,0,0,1,1.422-2.877,5.77,5.77,0,0,1,3.507-1.043,6.036,6.036,0,0,1,3.049.688v-.322a2.5,2.5,0,0,0-.848-1.982,3.045,3.045,0,0,0-2.086-.745,3.234,3.234,0,0,0-1.662.435,2.242,2.242,0,0,0-1.02,1.192l-1.926-.825a4.365,4.365,0,0,1,1.536-1.868,4.914,4.914,0,0,1,3.027-.86,5.2,5.2,0,0,1,3.576,1.261,4.5,4.5,0,0,1,1.421,3.554V72.72h-2.018V71.161h-.091A4.137,4.137,0,0,1,355.3,73.087Zm.344-1.926a3.435,3.435,0,0,0,2.373-.975,3.018,3.018,0,0,0,1.065-2.3,4.158,4.158,0,0,0-2.682-.734,3.486,3.486,0,0,0-2.315.665,2,2,0,0,0-.779,1.559,1.5,1.5,0,0,0,.711,1.307A2.833,2.833,0,0,0,355.643,71.161Z" fill="#fff"/><path d="M365.685,77.671h-2.178l2.613-5.662-4.631-10.523h2.292l3.348,8.071h.046l3.255-8.071h2.292Z" fill="#fff"/><path d="M220.505,64.234q0-7.863,0-15.728a2.361,2.361,0,0,1,.58-1.717c.177-.189.305-.239.522-.018q5.292,5.4,10.6,10.783,3.435,3.489,6.877,6.97c.223.225.242.343.006.578q-8.433,8.387-16.843,16.8a.579.579,0,0,1-.911.054,2.14,2.14,0,0,1-.83-1.817q0-4.658-.006-9.316,0-3.292,0-6.586Z" fill="#fff"/><path d="M222.521,46.191a1.917,1.917,0,0,1,1.022.284q10.77,6.035,21.544,12.063c.331.185.324.288.069.539q-2.409,2.37-4.791,4.766c-.172.172-.277.272-.507.037q-8.569-8.739-17.153-17.463C222.657,46.368,222.618,46.311,222.521,46.191Z" fill="#fff"/><path d="M224.128,81.766q7.816-7.9,15.626-15.813c.323-.328.473-.284.762.017,1.321,1.376,2.662,2.733,4.008,4.083.237.237.257.334-.065.51Q234.424,76.057,224.4,81.569A2.766,2.766,0,0,0,224.128,81.766Z" fill="#fff"/><path d="M253.9,64.38a1.643,1.643,0,0,1-.723,1.317,9.177,9.177,0,0,1-1,.608c-2.023,1.118-4.052,2.226-6.07,3.352a.454.454,0,0,1-.66-.088q-2.155-2.228-4.344-4.42c-.212-.214-.218-.33,0-.545q2.547-2.509,5.068-5.045a.407.407,0,0,1,.588-.082c2,1.133,4.005,2.249,6.009,3.372A1.84,1.84,0,0,1,253.9,64.38Z" fill="#fff"/></g></svg>