<svg xmlns="http://www.w3.org/2000/svg" width="13.957" height="13.957" viewBox="0 0 13.957 13.957"><g transform="translate(-3 -3)"><path d="M9.979,7.775a.775.775,0,0,1-.775.775H4.551V16.3H12.3V11.652a.775.775,0,0,1,1.551,0V16.3A1.551,1.551,0,0,1,12.3,17.855H4.551A1.551,1.551,0,0,1,3,16.3V8.551A1.555,1.555,0,0,1,4.551,7H9.2A.775.775,0,0,1,9.979,7.775Z" transform="translate(0 -0.898)" fill="#71c09c"/><path d="M16.292,5.644,8.306,13.631a.775.775,0,1,1-1.086-1.1l7.971-7.979H12.415a.775.775,0,0,1,0-1.551h4.652a.775.775,0,0,1,.775.775V8.428a.775.775,0,0,1-1.551,0Z" transform="translate(-0.886)" fill="#71c09c"/></g></svg>