<svg xmlns="http://www.w3.org/2000/svg" width="60" height="60.828" viewBox="0 0 60 60.828"><g transform="translate(-2 -2)"><path d="M8,2H20a3.011,3.011,0,0,1,2.94,2.434l3,15.206a3.069,3.069,0,0,1-.81,2.737l-7.56,7.664a36.4,36.4,0,0,0,16.77,17l7.53-7.664a2.973,2.973,0,0,1,2.7-.821l15,3.041A3.046,3.046,0,0,1,62,44.58V56.745a6.042,6.042,0,0,1-6,6.083H50c-26.51,0-48-21.787-48-48.662V8.083A6.06,6.06,0,0,1,8,2Z" fill="#71c09c"/><path d="M32.161,3.708a3.041,3.041,0,0,1,4.258,4.258L23.4,21.044h7.847a3.041,3.041,0,0,1,0,6.083H16.041A3.041,3.041,0,0,1,13,24.086V8.879a3.041,3.041,0,0,1,6.083,0v7.877L32.161,3.678Z" transform="translate(21.627 2.246)" fill="#71c09c"/></g></svg>