<svg xmlns="http://www.w3.org/2000/svg" width="80" height="80.68" viewBox="0 0 80 80.68"><g transform="translate(-2 -3)"><path d="M10,3H74a8.166,8.166,0,0,1,8,8.323v49.94a8.166,8.166,0,0,1-8,8.323H10a8.166,8.166,0,0,1-8-8.323V11.323A8.19,8.19,0,0,1,10,3ZM74,52.94V19.647a8.166,8.166,0,0,1-8-8.323H18a8.166,8.166,0,0,1-8,8.323V52.94a8.166,8.166,0,0,1,8,8.323H66A8.19,8.19,0,0,1,74,52.94ZM26,19.647H58a4.165,4.165,0,0,1,0,8.323H26a4.165,4.165,0,0,1,0-8.323Z" transform="translate(0 0)" fill="#124542"/><path d="M17.6,35.452a13.519,13.519,0,1,1,15.885,0l8.449,11.626L34.4,46.47l-5,5.678L27.4,37.953a13.655,13.655,0,0,1-3.718,0l-2.028,14.2L16.687,46.47l-7.537.608L17.6,35.452ZM25.542,31.3a6.76,6.76,0,1,0-6.76-6.76A6.76,6.76,0,0,0,25.542,31.3Z" transform="translate(25.626 31.532)" fill="#124542"/></g></svg>