<svg xmlns="http://www.w3.org/2000/svg" width="65.852" height="65.852" viewBox="0 0 65.852 65.852"><g transform="translate(-831.148 -1269)"><path d="M10.317,3H61.535a7.317,7.317,0,0,1,7.317,7.317V61.535a7.317,7.317,0,0,1-7.317,7.317H10.317A7.317,7.317,0,0,1,3,61.535V10.317A7.338,7.338,0,0,1,10.317,3Zm0,7.317V46.9h7.317a7.317,7.317,0,0,1,7.317,7.317,7.338,7.338,0,0,0,7.317,7.317h7.317A7.317,7.317,0,0,0,46.9,54.218,7.338,7.338,0,0,1,54.218,46.9h7.317V10.317Z" transform="translate(828.148 1266)" fill="#316e52"/><path d="M18.675,20.8l11.9-11.9a3.606,3.606,0,0,1,5.048,5.12L21.2,28.449a3.606,3.606,0,0,1-5.048,0L8.939,21.237a3.606,3.606,0,0,1,5.048-5.12Z" transform="translate(841.793 1279.566)" fill="#316e52"/></g></svg>