<svg xmlns="http://www.w3.org/2000/svg" width="60" height="60" viewBox="0 0 60 60"><g transform="translate(-2 -1.996)"><path d="M15.649,14.428l3.48,3.45A3,3,0,0,1,17,23.007H5a3,3,0,0,1-3-3v-12a3,3,0,0,1,5.1-2.1l4.32,4.26A30,30,0,1,1,2,32.007a3,3,0,0,1,6,0,24,24,0,1,0,7.65-17.579Z" transform="translate(0 0)" fill="#71c09c"/><path d="M25.2,31.08a3.022,3.022,0,0,1-4.23,4.23l-9.065-9.065A3.022,3.022,0,0,1,11,24.13V9.022a3.022,3.022,0,0,1,6.043,0v13.87L25.2,31.05Z" transform="translate(17.935 7.922)" fill="#71c09c"/></g></svg>