<svg xmlns="http://www.w3.org/2000/svg" width="80" height="80" viewBox="0 0 80 80"><g transform="translate(-2 -2)"><path d="M4.361,47.659A7.923,7.923,0,0,1,2,42.017V22.008A20.008,20.008,0,0,1,22.008,2H41.977a7.864,7.864,0,0,1,5.682,2.361L79.673,36.374a8,8,0,0,1,0,11.285L47.659,79.673a8,8,0,0,1-11.285,0L4.361,47.659ZM22.008,30.012a8,8,0,1,0-8-8A8,8,0,0,0,22.008,30.012Z" transform="translate(0 0)" fill="#596eb1"/><path d="M24.039,48.1,48.1,24.039,32.059,8,8,32.1Z" transform="translate(17.962 17.962)" fill="#596eb1"/></g></svg>