<svg xmlns="http://www.w3.org/2000/svg" width="80" height="79" viewBox="0 0 80 79"><g transform="translate(-1.404 -2.789)"><path d="M22.288,6.46h28.2a3.989,3.989,0,0,1,2.792,6.82L36.368,30.192a3.989,3.989,0,0,1-2.792,1.2H5.3a3.989,3.989,0,0,1-2.712-6.82L19.5,7.657a3.989,3.989,0,0,1,2.792-1.2ZM65.763,49.935a3.988,3.988,0,0,1-1.2,2.832L47.655,69.678a3.989,3.989,0,0,1-6.781-2.792v-28.2a3.989,3.989,0,0,1,1.157-2.832L58.943,18.944a3.989,3.989,0,0,1,6.781,2.792v28.2Z" transform="translate(0 10.97)" fill="#7895ce"/><path d="M10.534,44.273A64.444,64.444,0,0,1,68.775,2.792,4.08,4.08,0,0,1,71.8,3.957a3.957,3.957,0,0,1,1.182,2.983A63.661,63.661,0,0,1,30.892,64.335a4.081,4.081,0,0,1-4.735-1.476A56.66,56.66,0,0,0,11.991,48.9a3.956,3.956,0,0,1-1.457-4.627Zm2.388,10.251a65.1,65.1,0,0,1,7.569,7.459,3.944,3.944,0,0,1,.788,3.694,4.017,4.017,0,0,1-2.691,2.687,64.171,64.171,0,0,1-9.714,2.154,4.085,4.085,0,0,1-3.457-1.111,3.953,3.953,0,0,1-1.157-3.4A70.286,70.286,0,0,1,6.406,56.4a4.019,4.019,0,0,1,2.727-2.651,4.093,4.093,0,0,1,3.749.777Z" transform="translate(8.416 0)" fill="#7895ce"/><path d="M11.747,32.557A75.941,75.941,0,0,1,37.672,58.522a63.365,63.365,0,0,1-11.647,5.783,3.989,3.989,0,0,1-4.667-1.476A56.238,56.238,0,0,0,7.4,48.87a3.989,3.989,0,0,1-1.436-4.627,63.712,63.712,0,0,1,5.783-11.686ZM53.187,4A62.617,62.617,0,0,1,63.358,2.8a3.989,3.989,0,0,1,4.148,4.148,62.1,62.1,0,0,1-1.2,10.171A76.58,76.58,0,0,0,53.187,4Zm-15.6,28.717a7.981,7.981,0,1,1,11.288,0A7.981,7.981,0,0,1,37.592,32.716Z" transform="translate(13.894 0.03)" fill="#7895ce"/></g></svg>