<svg xmlns="http://www.w3.org/2000/svg" width="60" height="63.333" viewBox="0 0 60 63.333"><g transform="translate(-3 -2)"><path d="M9.667,4H56.333A6.663,6.663,0,0,1,63,10.659V53.944A6.663,6.663,0,0,1,56.333,60.6H9.667A6.663,6.663,0,0,1,3,53.944V10.659A6.683,6.683,0,0,1,9.667,4Zm0,16.648v33.3H56.333v-33.3Z" transform="translate(0 4.73)" fill="#71c09c"/><path d="M29.222,39.015h6.635a3.365,3.365,0,0,1,0,6.73H29.222v6.73a3.318,3.318,0,1,1-6.635,0v-6.73H15.952a3.365,3.365,0,0,1,0-6.73h6.635v-6.73a3.318,3.318,0,1,1,6.635,0ZM9.317,2a3.342,3.342,0,0,1,3.317,3.365v10.1A3.318,3.318,0,1,1,6,15.46V5.365A3.342,3.342,0,0,1,9.317,2ZM42.492,2A3.342,3.342,0,0,1,45.81,5.365v10.1a3.318,3.318,0,1,1-6.635,0V5.365A3.342,3.342,0,0,1,42.492,2Z" transform="translate(7.095)" fill="#71c09c"/></g></svg>